<svg width="26" height="26" viewBox="0 0 26 26" fill="none" xmlns="http://www.w3.org/2000/svg">
<path d="M13 1C6.37589 1 1 6.37588 1 13C1 19.6241 6.37589 25 13 25C19.6241 25 25 19.6241 25 13C25 6.37588 19.6241 1 13 1ZM13 1.55814C19.3225 1.55814 24.4419 6.67753 24.4419 13C24.4419 15.7501 23.4754 18.2745 21.8605 20.2471C19.9687 17.0698 16.711 14.9535 13 14.9535C9.289 14.9535 6.03128 17.0698 4.13953 20.2471C2.52459 18.2745 1.55814 15.7501 1.55814 13C1.55814 6.67753 6.67753 1.55814 13 1.55814ZM13 3.7907C10.5373 3.7907 8.53488 5.79311 8.53488 8.25581C8.53488 10.7185 10.5373 12.7209 13 12.7209C15.4627 12.7209 17.4651 10.7185 17.4651 8.25581C17.4651 5.79311 15.4627 3.7907 13 3.7907ZM13 4.34884C15.1611 4.34884 16.907 6.09475 16.907 8.25581C16.907 10.4169 15.1611 12.1628 13 12.1628C10.8389 12.1628 9.09302 10.4169 9.09302 8.25581C9.09302 6.09475 10.8389 4.34884 13 4.34884ZM13 15.5116C16.5613 15.5116 19.6893 17.5729 21.4767 20.6919C19.3839 22.9996 16.3632 24.4419 13 24.4419C9.63682 24.4419 6.61611 22.9996 4.52326 20.6919C6.31075 17.5729 9.43869 15.5116 13 15.5116Z" fill="black" stroke="black" stroke-width="0.5"/>
</svg>
