<svg width="23" height="23" viewBox="0 0 23 23" fill="none" xmlns="http://www.w3.org/2000/svg">
<path d="M15.9083 13.9599C16.2335 13.6347 16.799 13.6337 17.1262 13.9599L22.7473 19.5811C22.9109 19.7427 23 19.9593 23 20.1899C23 20.4195 22.9109 20.6362 22.7483 20.7978L20.7987 22.7469C20.6361 22.9094 20.4204 23 20.1897 23C19.96 23 19.7434 22.9094 19.5817 22.7469L13.9587 17.1262C13.6239 16.7905 13.6239 16.2447 13.9587 15.909L14.5972 15.2706L14.0292 14.7038C12.484 16.0871 10.5139 16.851 8.42319 16.851C6.17237 16.851 4.05566 15.975 2.46437 14.3836C-0.821293 11.0983 -0.821291 5.75275 2.46337 2.4679C4.05616 0.876496 6.17237 0 8.42319 0C10.674 0 12.7907 0.875995 14.3825 2.4679C15.9743 4.05929 16.851 6.17499 16.851 8.42576C16.851 10.5159 16.0859 12.4851 14.7023 14.0309L15.2702 14.5983L15.9083 13.9599ZM13.709 3.14078C12.2968 1.72898 10.4198 0.952038 8.42269 0.952038C6.42558 0.952038 4.54856 1.72948 3.13591 3.14078C0.222555 6.05442 0.222553 10.7961 3.13691 13.7107C4.54856 15.1215 6.42658 15.8985 8.42269 15.8985C10.4188 15.8985 12.2968 15.1215 13.708 13.7107L13.709 13.7097L13.71 13.7087C15.1211 12.298 15.8987 10.4209 15.8987 8.42526C15.8987 6.42913 15.1206 4.55207 13.709 3.14078ZM20.1897 22.0094L22.0102 20.1894L16.5173 14.6968L15.608 15.6058L15.607 15.6068L15.606 15.6078L14.6968 16.5168L20.1897 22.0094Z" fill="#262626"/>
</svg>
