<svg width="21" height="14" viewBox="0 0 21 14" fill="none" xmlns="http://www.w3.org/2000/svg">
<path d="M0.732558 0C0.335172 0 0 0.34315 0 0.75V13.25C0 13.6568 0.335172 14 0.732558 14H20.2674C20.6648 14 21 13.6568 21 13.25V0.75C21 0.34315 20.6648 0 20.2674 0H0.732558ZM0.976744 1H20.0233V1.2578L10.5 8.8672L0.976744 1.2578V1ZM0.976744 2.51562L10.2024 9.89062C10.2877 9.95777 10.3924 9.99417 10.5 9.99417C10.6076 9.99417 10.7123 9.95777 10.7976 9.89062L20.0233 2.51562V13H0.976744V2.51562Z" fill="#262626"/>
</svg>
